name D:\school\WTK\thesis\model\3dpredictsim\Results\MidTarsalJoint\Fal_s1_bCst_PF_Natali2010_ls150_MT_k800_MTP_T5_d00_ig24.mot
datacolumns 128
datarows 4
range 0.00000000 0.03375186
endheader
time	pelvis_tilt	pelvis_list	pelvis_rotation	pelvis_tx	pelvis_ty	pelvis_tz	hip_flexion_l	hip_adduction_l	hip_rotation_l	hip_flexion_r	hip_adduction_r	hip_rotation_r	knee_angle_l	knee_angle_r	ankle_angle_l	ankle_angle_r	subtalar_angle_l	subtalar_angle_r	mtj_angle_l	mtj_angle_r	mtp_angle_l	mtp_angle_r	lumbar_extension	lumbar_bending	lumbar_rotation	arm_flex_l	arm_add_l	arm_rot_l	arm_flex_r	arm_add_r	arm_rot_r	elbow_flex_l	elbow_flex_r	pro_sup_l	pro_sup_r	glut_med1_l/activation	glut_med2_l/activation	glut_med3_l/activation	glut_min1_l/activation	glut_min2_l/activation	glut_min3_l/activation	semimem_l/activation	semiten_l/activation	bifemlh_l/activation	bifemsh_l/activation	sar_l/activation	add_long_l/activation	add_brev_l/activation	add_mag1_l/activation	add_mag2_l/activation	add_mag3_l/activation	tfl_l/activation	pect_l/activation	grac_l/activation	glut_max1_l/activation	glut_max2_l/activation	glut_max3_l/activation	iliacus_l/activation	psoas_l/activation	quad_fem_l/activation	gem_l/activation	peri_l/activation	rect_fem_l/activation	vas_med_l/activation	vas_int_l/activation	vas_lat_l/activation	med_gas_l/activation	lat_gas_l/activation	soleus_l/activation	tib_post_l/activation	flex_dig_l/activation	flex_hal_l/activation	tib_ant_l/activation	per_brev_l/activation	per_long_l/activation	per_tert_l/activation	ext_dig_l/activation	ext_hal_l/activation	ercspn_l/activation	intobl_l/activation	extobl_l/activation	glut_med1_r/activation	glut_med2_r/activation	glut_med3_r/activation	glut_min1_r/activation	glut_min2_r/activation	glut_min3_r/activation	semimem_r/activation	semiten_r/activation	bifemlh_r/activation	bifemsh_r/activation	sar_r/activation	add_long_r/activation	add_brev_r/activation	add_mag1_r/activation	add_mag2_r/activation	add_mag3_r/activation	tfl_r/activation	pect_r/activation	grac_r/activation	glut_max1_r/activation	glut_max2_r/activation	glut_max3_r/activation	iliacus_r/activation	psoas_r/activation	quad_fem_r/activation	gem_r/activation	peri_r/activation	rect_fem_r/activation	vas_med_r/activation	vas_int_r/activation	vas_lat_r/activation	med_gas_r/activation	lat_gas_r/activation	soleus_r/activation	tib_post_r/activation	flex_dig_r/activation	flex_hal_r/activation	tib_ant_r/activation	per_brev_r/activation	per_long_r/activation	per_tert_r/activation	ext_dig_r/activation	ext_hal_r/activation	ercspn_r/activation	intobl_r/activation	extobl_r/activation	
          0.00000000	         -2.92709277	         -1.88845434	          5.34769917	          0.00000000	          0.91748082	         -0.00434295	        -17.50693074	         -0.38534322	          5.82365921	         29.60437604	          2.74974509	         -4.55649760	         -4.60576154	         -9.79398433	          0.97876563	          7.54678324	          4.42121399	         -6.46744137	          2.07463587	         -0.05598384	         17.92663609	          0.47328037	         -2.01226830	         -0.00341567	         -1.91602074	          5.91431801	        -13.45020122	         15.74692684	         -5.60360266	        -13.54564490	          6.74372933	         32.39309220	         17.17746371	         86.51662706	         86.51662706	          0.24901092	          0.10095781	          0.08373325	          0.28428636	          0.19358807	          0.11810426	          0.05000171	          0.05000063	          0.05000044	          0.05257066	          0.11874388	          0.05007852	          0.05000224	          0.05000161	          0.05000325	          0.05000114	          0.33886781	          0.07050213	          0.05001247	          0.05000697	          0.05000348	          0.05000243	          0.53282858	          0.74209460	          0.05000122	          0.05000436	          0.07053710	          0.32658224	          0.05000217	          0.05000217	          0.05000184	          0.31557433	          0.41967332	          0.31486737	          0.30697509	          0.28901848	          0.37570000	          0.05000016	          0.05746119	          0.08184640	          0.05000113	          0.05000025	          0.05000086	          0.05000008	          0.05000008	          0.05000024	          0.05937545	          0.05937536	          0.05000072	          0.05937556	          0.05937551	          0.05936697	          0.21114529	          0.09211661	          0.26455429	          0.10425520	          0.05000124	          0.15619404	          0.23377910	          0.09794639	          0.17296701	          0.11213342	          0.05000046	          0.05009113	          0.14227544	          0.05000215	          0.05000151	          0.16054866	          0.05005598	          0.05000078	          0.17359166	          0.27542462	          0.12463905	          0.05000037	          0.08487950	          0.08358232	          0.07629706	          0.06114171	          0.06470419	          0.06267809	          0.05000008	          0.05000064	          0.05000052	          0.51359208	          0.26420613	          0.19297435	          0.21990923	          0.47058972	          0.11281979	          0.05958675	          0.12377766	          0.11029794	
          0.01125062	         -2.93005872	         -1.99741434	          5.71474118	          0.01663875	          0.91647371	         -0.00417950	        -17.59189977	         -0.73001054	          5.62264192	         29.14348437	          3.08158662	         -4.32504043	         -6.15222719	        -10.35792008	          0.49859745	          6.86418288	          5.21302426	         -6.76428039	          1.71514669	         -0.09649091	         19.31270099	          0.46073720	         -1.82103548	          0.18607426	         -1.98711278	          5.76994929	        -13.45262387	         16.14819316	         -6.51287137	        -13.53843586	          6.70491560	         33.63685430	         16.74299578	         86.51662706	         86.51662706	          0.20969174	          0.08501644	          0.07051168	          0.23939734	          0.16302028	          0.09945547	          0.05001716	          0.05000378	          0.05000319	          0.05000080	          0.09999431	          0.13294918	          0.05756536	          0.05937766	          0.05937474	          0.05944897	          0.28536020	          0.05937202	          0.05006347	          0.05001945	          0.05001838	          0.05005695	          0.44869401	          0.62491747	          0.05002524	          0.05937493	          0.05939937	          0.31348580	          0.13265038	          0.14336465	          0.11693939	          0.26574453	          0.35340620	          0.28424858	          0.28733108	          0.24338382	          0.31644251	          0.05000014	          0.05000025	          0.09706088	          0.05000034	          0.05000013	          0.05000057	          0.05000046	          0.07050945	          0.05937588	          0.05000004	          0.05000012	          0.09388754	          0.05000014	          0.05000016	          0.05000020	          0.17780507	          0.07757130	          0.22278067	          0.08779326	          0.06738295	          0.13153265	          0.27234107	          0.30190842	          0.18820682	          0.09534564	          0.05000133	          0.07117848	          0.11981796	          0.05000509	          0.06231819	          0.14425073	          0.05000333	          0.07051747	          0.52777744	          0.23193469	          0.10495848	          0.08373027	          0.07147924	          0.07038917	          0.09731127	          0.05938233	          0.07029755	          0.05937582	          0.07050794	          0.05496841	          0.06016968	          0.43249495	          0.24172974	          0.22159326	          0.18518538	          0.39628275	          0.17148119	          0.05017789	          0.10423293	          0.09288170	
          0.02250124	         -2.92965239	         -2.11216517	          6.05323792	          0.03360264	          0.91556734	         -0.00402838	        -17.64934168	         -1.08407608	          5.40071970	         28.58166233	          3.32055358	         -4.06774220	         -7.74183364	        -11.15813323	         -0.12452962	          6.21149636	          5.97502345	         -7.08673072	          1.28244782	         -0.13494459	         20.66962993	          0.35119092	         -1.60653781	          0.38984496	         -2.04671241	          5.55126061	        -13.44979607	         16.49748871	         -7.46055194	        -13.53460656	          6.70821857	         34.84210856	         16.37922102	         86.51662706	         86.51662706	          0.26612428	          0.07159226	          0.05937782	          0.29577388	          0.13727929	          0.08375138	          0.05000356	          0.05000073	          0.05000058	          0.05000077	          0.08420552	          0.11195641	          0.05000074	          0.05000243	          0.05000349	          0.05006291	          0.24031732	          0.05000291	          0.05000112	          0.05000738	          0.05000442	          0.05000292	          0.37784456	          0.62336120	          0.05000030	          0.05000158	          0.05002030	          0.26398617	          0.12783660	          0.12076981	          0.09850603	          0.22378293	          0.29760268	          0.23936516	          0.25062907	          0.20495351	          0.26647620	          0.05000006	          0.08671780	          0.12298989	          0.05000041	          0.05000009	          0.05000037	          0.05000004	          0.05937588	          0.05000039	          0.20736957	          0.19579328	          0.23418778	          0.32639639	          0.21603635	          0.19811795	          0.14972941	          0.06532333	          0.18760321	          0.07393080	          0.05674346	          0.11076353	          0.22933814	          0.25423668	          0.15848909	          0.11102569	          0.05000168	          0.05994376	          0.10089956	          0.05000115	          0.05247880	          0.12940502	          0.05005215	          0.05938271	          0.44444040	          0.19531202	          0.20013852	          0.07050912	          0.06019291	          0.05927496	          0.08194586	          0.05000582	          0.05919756	          0.05000030	          0.05937542	          0.05000266	          0.05066928	          0.47373928	          0.30120344	          0.18660334	          0.30900501	          0.49274238	          0.20643626	          0.05037710	          0.14401083	          0.07821553	
          0.03375186	         -2.92816694	         -2.22510094	          6.35492219	          0.05070262	          0.91478466	         -0.00384282	        -17.64893148	         -1.43878040	          5.17259713	         27.96985077	          3.53675458	         -3.80749775	         -9.40865129	        -11.91347107	         -0.89583822	          5.67779970	          6.70811536	         -7.41659328	          0.82766440	         -0.13824145	         21.90630513	          0.47908714	         -1.39027313	          0.59985794	         -2.10043778	          5.28691821	        -13.45191889	         16.81597789	         -8.40091283	        -13.52767241	          6.74182278	         35.99007855	         16.06739917	         86.51662706	         86.51662706	          0.27266152	          0.06028780	          0.05000215	          0.24907255	          0.11560281	          0.07052700	          0.05000373	          0.05000066	          0.05000050	          0.05000062	          0.07090985	          0.12175504	          0.05002845	          0.05000602	          0.05000997	          0.05000285	          0.20740228	          0.06096427	          0.05000478	          0.05001066	          0.05000690	          0.05000631	          0.31818238	          0.59676546	          0.05000146	          0.05000319	          0.05000053	          0.22230239	          0.17050666	          0.16494408	          0.14176740	          0.18844715	          0.25061062	          0.20156891	          0.21105461	          0.17259117	          0.22439927	          0.05000010	          0.07302620	          0.12846572	          0.05000042	          0.05000039	          0.05000048	          0.06195255	          0.05000033	          0.05000009	          0.28956693	          0.29274201	          0.31767405	          0.27485876	          0.22091840	          0.21264077	          0.12608689	          0.05500960	          0.15798033	          0.06225732	          0.05000275	          0.09327384	          0.19312530	          0.21409255	          0.13346501	          0.14167914	          0.05000201	          0.05047987	          0.08496798	          0.18057114	          0.14666366	          0.14890025	          0.05000035	          0.05000618	          0.37426248	          0.16447205	          0.16853732	          0.05937566	          0.05069798	          0.05090014	          0.07871610	          0.05000014	          0.05000036	          0.05000008	          0.05000024	          0.05000099	          0.05000090	          0.56136616	          0.32485335	          0.20419089	          0.37989971	          0.50983404	          0.26758353	          0.07603111	          0.12127135	          0.06586516	
